<svg xmlns="http://www.w3.org/2000/svg" xml:space="preserve" style="enable-background:new 0 0 512 512" viewBox="0 0 512 512"><path d="M428.22 302.28c-.13-.64-.32-1.27-.57-1.87a9.87 9.87 0 0 0-2.17-3.25 9.57 9.57 0 0 0-1.52-1.24c-.54-.36-1.12-.67-1.72-.92-.6-.25-1.23-.44-1.87-.57a9.898 9.898 0 0 0-3.91 0c-.641.13-1.27.32-1.87.57-.599.25-1.19.56-1.73.92-.55.36-1.06.78-1.52 1.24-.46.46-.88.97-1.24 1.52a10.175 10.175 0 0 0-1.49 3.6 9.85 9.85 0 0 0-.199 1.95c0 .65.069 1.31.199 1.96.131.63.32 1.26.57 1.87.25.6.561 1.18.92 1.72.36.55.78 1.06 1.24 1.52.46.47.97.88 1.52 1.25.54.36 1.13.67 1.73.92a9.833 9.833 0 0 0 3.82.76c.65 0 1.31-.06 1.96-.19.64-.13 1.26-.32 1.87-.57.6-.25 1.18-.56 1.72-.92a9.63 9.63 0 0 0 1.52-1.25c.471-.46.88-.97 1.25-1.52.36-.54.67-1.12.92-1.72.25-.61.44-1.24.57-1.87.13-.65.2-1.31.2-1.96s-.07-1.31-.2-1.95zM160.729 399.56a10.096 10.096 0 0 0-1.489-3.6 9.57 9.57 0 0 0-1.24-1.52 10.04 10.04 0 0 0-3.25-2.16c-.6-.25-1.23-.44-1.87-.57a9.898 9.898 0 0 0-3.91 0c-.63.13-1.26.32-1.87.57-.6.25-1.18.56-1.72.92-.549.36-1.06.78-1.52 1.24-.46.46-.88.97-1.25 1.52a10.096 10.096 0 0 0-1.489 3.6c-.129.64-.19 1.3-.19 1.95 0 .66.06 1.31.19 1.96.13.63.319 1.26.569 1.87.25.6.561 1.18.92 1.72a10.164 10.164 0 0 0 2.77 2.77c.54.36 1.12.67 1.72.92.61.25 1.24.44 1.87.57a10.05 10.05 0 0 0 9.03-2.74c.46-.46.88-.97 1.24-1.52.359-.54.67-1.12.92-1.72.25-.61.439-1.24.569-1.87.13-.65.2-1.3.2-1.96 0-.65-.07-1.31-.2-1.95z"/><path d="M512 365.238c0-14.786-7.803-27.784-19.508-35.091-3.952-30.227-18.375-58.063-40.986-78.872-24.111-22.19-55.447-34.411-88.235-34.411h-79.829l1.656-19.74h5.297c5.522 0 10-4.477 10-10v-46.971c0-5.523-4.478-10-10-10h-17.803l-8.121-32.815a10 10 0 0 0-9.707-7.598h-93.836V23.001h38.666c5.522 0 10-4.477 10-10s-4.478-10-10-10h-48.666c-5.522 0-10 4.477-10 10v76.738H47.091a10 10 0 0 0-9.707 7.598l-8.121 32.815H10c-5.523 0-10 4.477-10 10v46.971c0 5.523 4.477 10 10 10h5.297L40.6 498.785a10 10 0 0 0 9.965 9.164l353.011 1.05c44.43 0 81.817-32.106 88.847-75.434 6.045-4.914 9.85-12.414 9.85-20.551a26.304 26.304 0 0 0-5.325-15.896c9.187-7.588 15.052-19.062 15.052-31.88zm-23.462-11.64H271.973l.813-9.697h197.878c7.474 0 14.063 3.863 17.874 9.697zM301.902 236.863h7.076v13.568c0 5.523 4.478 10 10 10 5.523 0 10-4.477 10-10v-13.568h7.076l24.72 21.165a9.96 9.96 0 0 0 6.499 2.404 9.985 9.985 0 0 0 7.602-3.496c3.592-4.195 3.103-10.508-1.093-14.1l-6.905-5.912c50.517 1.673 93.683 38.364 104.244 86.98a34.697 34.697 0 0 0-.457-.003H274.463l.811-9.669h104.379c5.523 0 10-4.477 10-10s-4.477-10-10-10H276.952l3.254-38.794 21.696-18.575zM54.918 109.739h192.018l5.052 20.413H49.866l5.052-20.413zM20 150.152h260.395v26.971H20v-26.971zm120.928 178.406v34.1c0 5.523 4.477 10 10 10 5.522 0 10-4.477 10-10v-34.1h58.156l-10.063 119.965H91.373L81.311 328.558h59.617zm-61.295-20-6.039-72.009h67.334v72.009H79.633zm81.295 0v-72.009h65.873l-6.039 72.009h-59.834zM59.761 487.949 35.367 197.123h105.561v19.427H62.72a9.997 9.997 0 0 0-9.964 10.836L72.213 459.36a10 10 0 0 0 9.965 9.164h136.041a10 10 0 0 0 9.965-9.164l19.457-231.974a10.001 10.001 0 0 0-9.964-10.836H160.93v-19.427h104.1l-2.422 28.878-.003.026-21.97 261.922H59.761zm343.884 1.05-142.947-.975 3.426-40.85c4.206 1.623 7.54 4.092 11.361 6.922 7.746 5.737 17.387 12.877 35.422 12.877h.142c18.035 0 27.676-7.14 35.422-12.878 7.014-5.194 12.081-8.948 23.514-8.948s16.5 3.753 23.514 8.948c7.745 5.737 17.385 12.877 35.417 12.877 16.956 0 28.254-9.912 37.333-17.875l1.02-.893c-11.105 24.284-35.575 40.795-63.624 40.795zm74.018-69.812c-.001 0-.001 0 0 0a4.245 4.245 0 0 1-.091.025l-.086.023-.067.017-.162.038a33.104 33.104 0 0 0-3.572 1.002c-7.936 2.713-14.219 8.148-20.297 13.479l-.331.291c-7.896 6.927-14.717 12.91-24.144 12.91-11.432 0-16.499-3.754-23.513-8.948-7.745-5.737-17.385-12.877-35.418-12.877-18.032 0-27.672 7.14-35.417 12.876-7.015 5.195-12.083 8.949-23.519 8.949h-.142c-11.436 0-16.504-3.754-23.519-8.949-5.439-4.027-11.888-8.804-21.553-11.25l1.694-20.199h208.308a6.446 6.446 0 0 1 6.439 6.44c0 2.856-1.915 5.388-4.61 6.173zm-6.999-32.613H269.207l1.088-12.976h219.998c-3.258 7.621-10.83 12.976-19.629 12.976z"/></svg>