<svg xmlns="http://www.w3.org/2000/svg" xml:space="preserve" style="enable-background:new 0 0 512 512" viewBox="0 0 512 512"><path d="M314.387 357.083a10 10 0 0 0-.57-1.87 9.87 9.87 0 0 0-.92-1.73 9.51 9.51 0 0 0-1.239-1.52c-2.33-2.32-5.78-3.39-9.03-2.73-.63.12-1.26.32-1.87.57-.6.25-1.18.56-1.72.92-.55.36-1.061.78-1.521 1.24a9.9 9.9 0 0 0-2.17 3.25 10.05 10.05 0 0 0-.569 1.87 9.757 9.757 0 0 0-.191 1.949c0 .65.06 1.31.191 1.95.13.641.319 1.271.569 1.88.25.601.561 1.181.92 1.721.37.55.79 1.06 1.25 1.52.461.46.971.88 1.521 1.24.54.36 1.12.67 1.72.92.61.25 1.24.45 1.87.58.65.129 1.31.189 1.96.189s1.31-.059 1.95-.189c.64-.13 1.269-.33 1.87-.58a9.896 9.896 0 0 0 1.729-.92c.55-.36 1.061-.78 1.521-1.24.46-.46.88-.97 1.239-1.52.361-.54.67-1.12.92-1.721.25-.61.44-1.239.57-1.88.13-.639.2-1.3.2-1.95 0-.649-.07-1.309-.2-1.949z"/><path d="M397.072 254.871c1.957-15.773-2.947-30.844-14.079-42.897a65.63 65.63 0 0 0-3.504-3.516c8.255-26.166 6.162-49.362-6.168-67.422-8.426-12.341-21.311-21.929-38.202-28.593 18.197-42.189-10.773-63.736-32.364-79.796-10.699-7.957-20.805-15.474-24.05-23.742-1.386-3.528-4.177-6.383-7.657-7.832a13.7 13.7 0 0 0-10.79.067c-14.051 6.061-59.076 28.259-67.297 66.339-5.464 3.914-15.684 12.077-24.519 23.855-15.567 20.753-20.194 43.579-13.577 66.448-5.881 4.709-14.887 12.822-22.889 23.781-16.309 22.336-21.358 46.595-14.784 70.566-5.437 5.907-8.762 13.787-8.762 22.43 0 11.735 6.129 22.064 15.354 27.956l46.218 201.718a10 10 0 0 0 9.748 7.768h152.498a10 10 0 0 0 9.747-7.767l46.219-201.719c9.224-5.891 15.353-16.221 15.353-27.955a32.971 32.971 0 0 0-6.495-19.689zM262.892 21.937c6.301 10.674 17.269 18.831 27.927 26.759 24.345 18.107 38.097 30.275 25.065 57.821-13.789-3.222-29.472-4.975-46.895-5.199-23.36-.299-42.299-10.453-56.348-30.19 5.818-25.067 36.426-42.486 50.251-49.191zm-78.791 81.853c5.233-7.081 11.194-12.651 15.761-16.397 17.449 21.885 41.066 33.566 68.869 33.923 43.528.559 74.807 11.566 88.073 30.997 7.974 11.678 9.752 26.484 5.329 44.125-24.857-12.773-60.791-16.61-104.325-10.773-41.834 5.606-67.006-13.781-82.503-29.667-6.486-17.968-3.531-35.525 8.796-52.208zm-36.304 90.026c6.11-8.479 13.075-15.024 17.985-19.117 7.397 6.999 17.473 15.102 30.576 21.411 19.375 9.328 40.944 12.484 64.107 9.379 44.614-5.975 80.482-.975 100.665 13.717.406.361.844.692 1.313.988a47.913 47.913 0 0 1 5.858 5.349c4.563 4.941 7.453 10.517 8.611 16.508a33.155 33.155 0 0 0-6.492-.639H141.58c-2.124 0-4.202.201-6.216.585-3.051-16.308 1.111-32.472 12.433-48.181zm24.662 231.585-26.967-117.694h144.661L172.459 425.401zm151.821 66.6h-86.909L350.113 379.26 324.28 492.001zm34.239-149.433L209.088 492.001h-21.37l-.365-1.592 96.019-96.019c3.905-3.905 3.905-10.237 0-14.143-3.906-3.904-10.236-3.904-14.143 0l-87.149 87.149-4.349-18.985 140.705-140.704h48.069l-7.986 34.861zm12.169-54.864H141.311c-7.128-.143-12.882-5.985-12.882-13.145.001-7.251 5.899-13.15 13.15-13.15h228.84a13.105 13.105 0 0 1 9.188 3.751 13.113 13.113 0 0 1 3.962 9.399c0 7.161-5.754 13.003-12.881 13.145z"/><path d="M219.072 323.432c-3.906-3.904-10.238-3.904-14.143 0l-22.5 22.5c-3.905 3.906-3.905 10.238 0 14.143 1.952 1.952 4.512 2.929 7.071 2.929s5.119-.976 7.072-2.929l22.5-22.5c3.905-3.906 3.905-10.238 0-14.143zM320.267 439.18c-3.906-3.904-10.236-3.904-14.142 0l-22.5 22.5c-3.905 3.906-3.905 10.238 0 14.143a9.972 9.972 0 0 0 7.071 2.929c2.56 0 5.118-.976 7.071-2.929l22.5-22.5c3.905-3.906 3.905-10.238 0-14.143z"/></svg>