<svg xmlns="http://www.w3.org/2000/svg" xml:space="preserve" id="Layer_1" x="0" y="0" style="enable-background:new 0 0 112 36" version="1.1" viewBox="0 0 112 36"><style>.st0{fill:#feca57}.st2{enable-background:new}.st3{fill:#fff}.st4{fill:#060606}</style><path d="M30.1 21.3v-.1s0-.1-.1-.1l-.1-.1-.1-.1s-.1 0-.1-.1h-.5s-.1 0-.1.1l-.1.1-.1.1s0 .1-.1.1v.4s0 .1.1.1l.1.1.1.1s.1 0 .1.1h.4s.1 0 .1-.1l.1-.1.1-.1s0-.1.1-.1v-.2l.1-.1zM11.3 28.1V28s0-.1-.1-.1l-.1-.1-.1-.1s-.1 0-.1-.1h-.5s-.1 0-.1.1l-.1.1-.1.1s0 .1-.1.1v.4s0 .1.1.1l.1.1.1.1s.1 0 .1.1h.2c.2 0 .4-.1.5-.2l.1-.1s0-.1.1-.1V28.1z" class="st0"/><path d="M36 25.7c0-1-.5-2-1.4-2.5-.3-2.1-1.3-4.1-2.9-5.5-1.7-1.6-3.9-2.4-6.2-2.4h-5.6l.1-1.4h.4c.4 0 .7-.3.7-.7V9.9c0-.4-.3-.7-.7-.7h-1.3l-.6-2.3c-.1-.3-.4-.5-.7-.5h-6.6V1.6H14c.4 0 .7-.3.7-.7s-.3-.7-.7-.7h-3.4c-.4 0-.7.3-.7.7v5.4H3.3c-.3 0-.6.2-.7.5l-.5 2.4H.7c-.4 0-.7.3-.7.7v3.3c0 .4.3.7.7.7h.4l1.8 21.2c0 .4.3.6.7.6l24.8.1c3.1 0 5.8-2.3 6.2-5.3.4-.3.7-.9.7-1.4 0-.4-.1-.8-.4-1.1.7-.6 1.1-1.4 1.1-2.3zm-1.6-.8H19.1l.1-.7h13.9c.5 0 1 .3 1.3.7zm-13.2-8.2h.5v1c0 .4.3.7.7.7.4 0 .7-.3.7-.7v-1h.5l1.7 1.5c.1.1.3.2.5.2s.4-.1.5-.2c.3-.3.2-.7-.1-1l-.5-.4c3.6.1 6.6 2.7 7.3 6.1H19.3l.1-.7h7.3c.4 0 .7-.3.7-.7 0-.4-.3-.7-.7-.7h-7.2l.2-2.7 1.5-1.4zm-17.3-9h13.5l.4 1.4H3.5l.4-1.4zm-2.5 2.9h18.3v1.9H1.4v-1.9zm8.5 12.5v2.4c0 .4.3.7.7.7s.7-.3.7-.7v-2.4h4.1l-.7 8.4H6.4l-.7-8.4h4.2zm-4.3-1.4-.4-5.1h4.7v5.1H5.6zm5.7 0v-5.1h4.6l-.4 5.1h-4.2zM4.2 34.3 2.5 13.9h7.4v1.4H4.4c-.2 0-.4.1-.5.2-.1.1-.2.3-.2.5l1.4 16.3c0 .4.3.6.7.6h9.6c.4 0 .7-.3.7-.6L17.4 16c0-.2 0-.4-.2-.5-.1-.1-.3-.2-.5-.2h-5.4v-1.4h7.3l-.2 2-1.5 18.4H4.2zm24.2.1-10.1-.1.2-2.9c.3.1.5.3.8.5.5.4 1.2.9 2.5.9s1.9-.5 2.5-.9c.5-.4.8-.6 1.7-.6.8 0 1.2.3 1.7.6.5.4 1.2.9 2.5.9 1.2 0 2-.7 2.6-1.3l.1-.1c-.8 1.8-2.5 3-4.5 3zm5.2-4.9c-.1 0-.2 0-.3.1-.6.2-1 .6-1.4.9-.6.5-1 .9-1.7.9-.8 0-1.2-.3-1.7-.6-.5-.4-1.2-.9-2.5-.9s-1.9.5-2.5.9c-.5.4-.8.6-1.7.6-.8 0-1.2-.3-1.7-.6-.4-.3-.8-.6-1.5-.8l.1-1.4h14.6c.2 0 .5.2.5.5.1.1 0 .3-.2.4zm-.5-2.3H18.9l.1-.9h15.5c-.3.5-.8.9-1.4.9z" style="fill:#fcc419"/><g class="st2"><path d="M47.4 11.9h-3.7v3.8h-1.9V6.4h6.1V8h-4.2v2.4h3.7v1.5zM48.4 12.2c0-.7.1-1.3.4-1.9s.7-1 1.2-1.3c.5-.3 1.1-.4 1.7-.4.9 0 1.7.3 2.3.9.6.6.9 1.4 1 2.4v.5c0 1.1-.3 1.9-.9 2.6-.6.6-1.4 1-2.4 1s-1.8-.3-2.4-1c-.6-.7-.9-1.6-.9-2.8zm1.9.2c0 .7.1 1.2.4 1.5.3.4.6.5 1.1.5.5 0 .8-.2 1.1-.5.3-.3.4-.9.4-1.7 0-.7-.1-1.2-.4-1.5-.3-.4-.6-.5-1.1-.5-.5 0-.8.2-1.1.5-.3.4-.4.9-.4 1.7zM55.9 12.2c0-.7.1-1.3.4-1.9.3-.5.7-1 1.2-1.3.5-.3 1.1-.4 1.7-.4.9 0 1.7.3 2.3.9.6.6.9 1.4 1 2.4v.5c0 1.1-.3 1.9-.9 2.6-.6.6-1.4 1-2.4 1s-1.8-.3-2.4-1c-.6-.7-.9-1.6-.9-2.8zm1.9.2c0 .7.1 1.2.4 1.5.2.4.6.5 1.1.5.5 0 .8-.2 1.1-.5.3-.3.4-.9.4-1.7 0-.7-.1-1.2-.4-1.5-.3-.4-.6-.5-1.1-.5-.5 0-.8.2-1.1.5-.3.4-.4.9-.4 1.7zM63.4 12.2c0-1.1.2-2 .7-2.6.5-.6 1.2-1 2-1 .7 0 1.2.3 1.7.8V5.9h1.9v9.9H68l-.1-.8c-.5.6-1.1.9-1.8.9-.8 0-1.5-.3-2-1-.5-.6-.7-1.5-.7-2.7zm1.9.2c0 .7.1 1.2.3 1.5.2.3.6.5 1 .5.6 0 1-.2 1.2-.7v-2.8c-.2-.5-.6-.7-1.2-.7-.9 0-1.3.7-1.3 2.2z" class="st3"/></g><g class="st2"><path d="M49.1 26.9c-.1 1-.4 1.8-1.1 2.4-.7.6-1.6.9-2.7.9-1.2 0-2.2-.4-2.8-1.2-.7-.8-1-1.9-1-3.3V25c0-.9.2-1.7.5-2.4s.8-1.2 1.4-1.6c.6-.4 1.3-.6 2.1-.6 1.1 0 2 .3 2.6.9.7.6 1 1.4 1.2 2.5h-1.9c0-.6-.2-1-.5-1.3-.3-.3-.7-.4-1.3-.4-.6 0-1.1.2-1.5.7-.3.5-.5 1.2-.5 2.2v.7c0 1 .2 1.8.5 2.2.3.5.8.7 1.5.7.6 0 1-.1 1.3-.4.3-.3.5-.7.5-1.3h1.7zM50 26.5c0-.7.1-1.3.4-1.9.3-.5.7-1 1.2-1.3.5-.3 1.1-.4 1.7-.4.9 0 1.7.3 2.3.9.6.6.9 1.4 1 2.4v.5c0 1.1-.3 1.9-.9 2.6-.6.6-1.4 1-2.4 1s-1.8-.3-2.4-1c-.6-.8-.9-1.6-.9-2.8zm1.8.1c0 .7.1 1.2.4 1.5.3.4.6.5 1.1.5.5 0 .8-.2 1.1-.5.3-.3.4-.9.4-1.7 0-.7-.1-1.2-.4-1.5-.3-.4-.6-.5-1.1-.5-.5 0-.8.2-1.1.5-.2.4-.4.9-.4 1.7zM59.5 23l.1.8c.5-.6 1.2-.9 2-.9.9 0 1.5.4 1.9 1.1.5-.7 1.2-1.1 2.1-1.1.8 0 1.3.2 1.7.7.4.4.6 1.1.6 2V30H66v-4.5c0-.4-.1-.7-.2-.9-.2-.2-.4-.3-.8-.3-.6 0-.9.3-1.2.8v4.8h-1.9v-4.5c0-.4-.1-.7-.2-.9-.2-.2-.4-.3-.8-.3-.5 0-.9.2-1.2.7V30h-1.9v-7h1.7zM71 23l.1.8c.5-.6 1.2-.9 2-.9.9 0 1.5.4 1.9 1.1.5-.7 1.2-1.1 2.1-1.1.8 0 1.3.2 1.7.7.4.4.6 1.1.6 2V30h-1.9v-4.5c0-.4-.1-.7-.2-.9-.2-.2-.4-.3-.8-.3-.6 0-.9.3-1.2.8v4.8h-1.9v-4.5c0-.4-.1-.7-.2-.9-.2-.2-.4-.3-.8-.3-.5 0-.9.2-1.2.7V30h-1.9v-7H71zM83.9 30.1c-1 0-1.9-.3-2.5-.9-.6-.6-1-1.5-1-2.5v-.2c0-.7.1-1.3.4-1.9.3-.6.7-1 1.2-1.3.5-.3 1.1-.4 1.7-.4 1 0 1.7.3 2.3.9.5.6.8 1.5.8 2.6v.8h-4.5c.1.5.2.8.5 1.1.3.3.7.4 1.2.4.7 0 1.3-.3 1.7-.8l.9 1c-.3.4-.7.7-1.1.9-.5.2-1 .3-1.6.3zm-.2-5.7c-.4 0-.7.1-.9.4-.2.3-.4.6-.4 1.1H85v-.1c0-.4-.1-.7-.3-1-.3-.3-.6-.4-1-.4zM91.8 24.8c-.3 0-.5-.1-.7-.1-.7 0-1.2.2-1.4.7V30h-1.9v-7h1.8l.1.8c.4-.6.9-1 1.6-1 .2 0 .4 0 .6.1l-.1 1.9zM95.4 28.6c.3 0 .6-.1.8-.3.2-.2.3-.4.3-.8h1.8c0 .5-.1.9-.4 1.3-.3.4-.6.7-1 .9-.4.2-.9.3-1.5.3-1 0-1.8-.3-2.4-1s-.9-1.5-.9-2.6v-.1c0-1.1.3-1.9.9-2.6.6-.6 1.4-1 2.4-1 .9 0 1.6.2 2.1.7.5.5.8 1.2.8 2h-1.8c0-.4-.1-.7-.3-.9-.2-.2-.5-.3-.9-.3s-.8.2-1 .5c-.2.3-.3.8-.3 1.5v.2c0 .7.1 1.2.3 1.6.4.5.7.6 1.1.6zM102.7 30.1c-1 0-1.9-.3-2.5-.9-.6-.6-1-1.5-1-2.5v-.2c0-.7.1-1.3.4-1.9.3-.6.7-1 1.2-1.3.5-.3 1.1-.4 1.7-.4 1 0 1.7.3 2.3.9.5.6.8 1.5.8 2.6v.8h-4.5c.1.5.2.8.5 1.1.3.3.7.4 1.2.4.7 0 1.3-.3 1.7-.8l.9 1c-.3.4-.7.7-1.1.9-.5.2-1.1.3-1.6.3zm-.2-5.7c-.4 0-.7.1-.9.4-.2.3-.4.6-.4 1.1h2.6v-.1c0-.4-.1-.7-.3-1-.3-.3-.7-.4-1-.4z" class="st4"/></g></svg>