<svg xmlns="http://www.w3.org/2000/svg" width="529" height="289" fill="none"><path fill="#565656" d="M362.681 247.248c49.367-.583 98.733-.249 148.096 1.002 4.247.108 8.654.246 12.404 1.371s6.636 3.538 5.61 5.857c-19.27.57-38.56.746-57.87.529-4.205 2.06-8.822 5.164-6.237 7.943 1.788 1.922 6.202 2.495 10.063 2.499 6.991.009 14.011-1.139 20.9-.466 6.888.674 13.761 4.298 11.744 8.061-1.533 2.857-7.346 4.271-12.637 4.524-5.29.252-10.707-.273-15.879.404-4.914.643-9.172 2.314-13.771 3.48-7.255 1.84-15.297 2.408-23.21 2.892-60.757 3.713-122.019 3.683-183.135 3.65-24.742-.014-49.82-.051-73.712-3.665-13.62-2.059-26.67-5.258-40.461-6.917-16.474-1.983-33.499-1.714-50.345-1.654-29.574.104-59.123-.466-88.647-1.711-2.197-.092-4.894-.406-5.487-1.599-.692-1.392 2.116-2.478 4.49-3.033a260.604 260.604 0 0 1 40.902-6.104c6.975-.49 14.164-.74 20.58-2.355 6.415-1.616 12.02-5.003 11.96-8.954-.018-1.206-.526-2.495.479-3.56 1.335-1.414 4.62-1.738 7.455-1.892a1492.971 1492.971 0 0 1 94.579-2.135c11.103.101 22.252.324 33.277-.424 9.033-.613 17.881-1.872 26.783-2.929 11.95-1.418 63.955-8.766 71.541-2.804 5.679 4.463-6.046 5.426 9.186 7.247 13.262 1.586 27.891.902 41.342.743Z"/><path fill="#FECA57" d="M170.491 226.865s-18.307 36.239-2.726 36.239 211.899.779 217.353-9.352c3.82-7.098 1.714-32.367.11-46.861a11.085 11.085 0 0 0-3.852-7.239 11.073 11.073 0 0 0-7.772-2.608c-42.459 2.344-201.076 11.032-200.386 9.948 1.363-2.143.39-1.559.39-1.559s-6.233 19.873-3.117 21.432Z"/><path fill="#000" d="M385.618 206.891a11.085 11.085 0 0 0-3.852-7.239 11.074 11.074 0 0 0-7.773-2.608c-42.458 2.344-201.075 11.032-200.385 9.948 1.363-2.143.389-1.559.389-1.559s-1.391 4.437-2.53 9.282c.161-.016.282.136-.244 1.061a70.34 70.34 0 0 0-.138.627c6.353.628 158.701-7.717 200.182-10.007a11.08 11.08 0 0 1 11.624 9.847c1.192 10.776 2.662 27.506 1.768 38.298.344-.187.636-.459.848-.789 3.821-7.098 1.714-32.367.111-46.861Z" opacity=".1"/><path fill="#61AB43" d="M192.312 172.555c-2.029-.622-4.598-1.425-4.366-2.735.123-.696 1.054-1.24 1.729-1.823 1.3-1.125 1.651-2.71.254-3.796-1.397-1.087-4.762-1.232-5.994-.082-.634.591-.596 1.333-.923 2.001-1.021 2.084-5.153 2.999-8.663 3.809-3.51.809-7.436 2.316-7.107 4.472.36 2.352 5.775 4.439 3.596 6.444-.79.727-2.452 1.133-2.805 1.965-.249.585.251 1.181.736 1.715l3.448 3.8c1.372 1.512 2.785 3.157 2.326 4.84-.911 3.336-8.313 4.612-14.18 4.237-2.149-.137-4.674-.325-6.15.578-1.138.697-1.136 1.781-.758 2.709.973 2.388 4.087 4.456 8.072 5.362-4.466.881-6.22 4.597-3.136 6.644a9.173 9.173 0 0 1-5.47.157c-1.525 1.405-.628 3.332 1.306 4.561 1.935 1.229 4.675 1.92 7.329 2.577l-2.484 2.323c1.797 1.404 5.678.909 8.295.021 2.617-.887 5.457-2.079 8.39-1.614 2.75.435 4.83 2.27 7.63 1.956 2.17-.244 3.202-1.639 3.878-2.843l2.874-5.118c4.091.64 8.393-2.164 6.75-4.401 4.578.492 9.084-2.482 7.581-5.003 2.438 1.881 4.155 4.066 4.994 6.358.376 1.024.604 2.106 1.626 2.974a5.396 5.396 0 0 0 4.724.855c-.835 1.62-1.511 3.508.205 4.883 1.715 1.374 6.665.984 6.447-.7 2.616 1.125 5.547 2.182 8.817 2.266 3.269.084 6.847-1.161 7.145-3.025a45.672 45.672 0 0 0 14.279 2.299c.413-1.247 3.295-1.65 5.45-1.346 2.155.305 4.154 1.038 6.373 1.039 2.22.001 4.607-1.335 3.471-2.426a45.854 45.854 0 0 0 14.221.718c4.48-.476 8.726-1.606 13.262-1.85 4.601-.28 9.209.447 13.5 2.133 1.487.624 3.336 1.409 4.969.919.927-.277 1.378-.876 2.007-1.354 2.71-2.057 8.25-1.662 12.525-.854 4.275.809 9.247 1.782 12.993.353 1.413-.539 2.454-1.372 3.958-1.825 5.385-1.622 11.83 2.533 17.546 1.338 1.862-.389 3.372-1.321 5.344-1.436 3.497-.203 5.808 2.168 9.209 2.678 3.528.529 7.353-1.619 6.492-3.646a31.656 31.656 0 0 0 10.014-1.392l-1.601-2.884c3.991-.065 6.927-2.927 5.078-4.951 4.002-.762 7.167-2.814 7.99-5.181.822-2.366-.729-4.955-3.917-6.535-1.882-.932-4.353-1.588-5.428-2.872-.775-.925-.662-2.001-.963-3.012-.659-2.213-3.517-4.166-7.209-4.928-1.603-.331-3.358-.456-4.809-.967-1.452-.511-2.501-1.618-1.663-2.467.444-.449 1.298-.714 1.85-1.122 2.239-1.654-1.6-3.747-4.878-4.676l7.827-.256 1.681-7.624c-3.097 2.52-11.13 1.99-13.143-.867 2.515.826 5.887-.23 7.116-1.731 1.23-1.502.928-3.248.599-4.895a2.37 2.37 0 0 0-1.304-1.945c-.766-.365-1.987-.517-2.238-1.069-.257-.563.735-1.061.882-1.637.282-1.105-2.258-1.592-3.973-2.127-4.047-1.261-6.006-4.805-10.61-4.69-4.568.114-5.845 3.604-5.848 6.219-.003 2.615-1.549 6.112-6.121 6.064-1.826-.019-3.418-.676-4.875-1.304l-13.095-5.65a31.298 31.298 0 0 0-5.377-1.928c-2.641-.617-5.559-.69-8.41-.755l-18.317-.416a8.523 8.523 0 0 0-2.778.239c-.962.322-1.43.955-2.009 1.499-2.551 2.396-8.548 3.334-12.876 2.015-1.147-.35-2.175-.832-3.391-1.096-3.83-.83-7.849.706-11.828 1.261-6.524.91-14.63-.656-19.332 2.084-1.568.914-2.4 2.164-3.853 3.138-1.453.973-4.075 1.634-5.907.898.23 1.788.44 3.653-.77 5.306-1.209 1.653-4.311 3.002-7.358 2.585-1.618-.427-1.49-1.787-.725-2.708.765-.92 1.938-1.861 1.556-2.856-.378-.987-2.109-1.562-3.404-2.25-1.295-.689-2.158-1.993-.783-2.629-.927-1.191-4.257-1.046-5.722-.047-1.465.999-1.611 2.406-1.771 3.707-.16 1.301-.508 2.725-2.206 3.596-2.892 1.483-8.446.714-10.364 2.646-.61.614-.646 1.354-.994 2.031-1.557 3.022-8.276 3.805-13.768 4.052a6.735 6.735 0 0 0-.076 1.907c1.878-.814-1.252-2.469-2.614-2.887Z"/><path fill="#000" d="M382.572 169.103c.328 1.648.63 3.394-.599 4.895a3.737 3.737 0 0 1-.616.583l4.961-.162 1.681-7.624c-1.283 1.044-3.413 1.563-5.611 1.612.078.227.14.46.184.696ZM384.017 178.083c-.196-1.031-1.894-2.076-3.796-2.824a7.72 7.72 0 0 1-5.365.471c1.388 1.97 5.64 2.833 9.161 2.353ZM386.447 183.638l-.128.583-7.828.256c3.278.928 7.118 3.022 4.878 4.676-.552.408-1.406.673-1.85 1.122-.837.849.211 1.956 1.663 2.466 1.452.511 3.206.637 4.81.968 3.691.762 6.549 2.715 7.208 4.928.302 1.011.189 2.086.963 3.011 1.076 1.285 3.547 1.94 5.428 2.873.182.09.356.184.527.28 1.701-.962 2.923-2.204 3.39-3.547.823-2.366-.729-4.955-3.917-6.535-1.881-.932-4.352-1.588-5.428-2.872-.774-.925-.661-2.001-.963-3.012-.659-2.212-3.517-4.166-7.208-4.928a33.814 33.814 0 0 0-1.545-.269ZM157.125 218.744c.609-1.298 2.165-2.45 4.402-2.892a14.892 14.892 0 0 1-5.898-2.661 8.913 8.913 0 0 1-2.708-.339c-1.525 1.405-.628 3.332 1.306 4.561a14.05 14.05 0 0 0 2.898 1.331ZM170.932 180.749a26.043 26.043 0 0 1 3.417-1.019c3.51-.809 7.642-1.724 8.663-3.808.327-.668.289-1.41.923-2.002 1.232-1.15 4.597-1.004 5.994.082 1.397 1.087 1.046 2.671-.254 3.796-.675.584-1.606 1.127-1.729 1.823-.231 1.31 2.337 2.114 4.366 2.736.956.308 1.85.779 2.643 1.394.017-.139.034-.277.047-.415 5.492-.246 12.211-1.029 13.768-4.051.348-.677.384-1.418.994-2.032 1.918-1.932 7.472-1.162 10.365-2.646 1.697-.87 2.045-2.295 2.205-3.595.16-1.301.306-2.708 1.771-3.707 1.465-.999 4.796-1.144 5.722.047-1.375.635-.511 1.94.783 2.628 1.295.689 3.026 1.263 3.405 2.251.381.995-.792 1.936-1.557 2.856-.765.92-.893 2.28.725 2.708 3.047.417 6.149-.932 7.359-2.586 1.209-1.653.999-3.518.769-5.305 1.833.736 4.454.075 5.907-.899 1.453-.974 2.285-2.223 3.853-3.137 4.702-2.741 12.809-1.175 19.332-2.084 3.979-.555 7.998-2.092 11.828-1.261 1.216.263 2.244.746 3.392 1.095 4.327 1.32 10.324.382 12.875-2.014.579-.545 1.047-1.178 2.009-1.499a8.496 8.496 0 0 1 2.778-.239l18.318.416c2.85.065 5.768.138 8.409.754a31.366 31.366 0 0 1 5.378 1.929l13.094 5.649c1.457.629 3.049 1.286 4.875 1.305 4.572.048 6.118-3.45 6.121-6.065.003-2.615 1.28-6.104 5.848-6.218 4.604-.115 6.564 3.429 10.61 4.69 1.715.534 4.255 1.022 3.973 2.127-.131.513-.93.964-.922 1.455a6.034 6.034 0 0 0 2.984-1.711c1.229-1.502.927-3.248.599-4.895a2.367 2.367 0 0 0-.397-1.144 2.37 2.37 0 0 0-.908-.801c-.766-.365-1.987-.517-2.238-1.069-.256-.563.735-1.061.882-1.637.282-1.105-2.258-1.592-3.973-2.127-4.046-1.261-6.006-4.805-10.61-4.69-4.568.114-5.845 3.604-5.848 6.219-.003 2.615-1.549 6.112-6.121 6.064-1.826-.019-3.418-.676-4.875-1.304l-13.094-5.65a31.278 31.278 0 0 0-5.378-1.928c-2.641-.617-5.559-.69-8.409-.755l-18.318-.416a8.523 8.523 0 0 0-2.778.239c-.962.322-1.43.955-2.009 1.499-2.551 2.396-8.548 3.334-12.875 2.015-1.148-.35-2.176-.832-3.392-1.096-3.83-.83-7.849.706-11.828 1.261-6.523.91-14.63-.656-19.332 2.085-1.568.913-2.4 2.163-3.853 3.137-1.453.973-4.074 1.634-5.907.899.23 1.787.44 3.652-.769 5.305-1.21 1.653-4.312 3.002-7.359 2.585-1.618-.427-1.49-1.787-.725-2.708.765-.92 1.938-1.86 1.557-2.856-.379-.987-2.11-1.562-3.405-2.25-1.294-.689-2.158-1.993-.783-2.629-.926-1.191-4.257-1.046-5.722-.047-1.465.999-1.611 2.406-1.771 3.707-.16 1.301-.508 2.725-2.205 3.596-2.893 1.483-8.447.714-10.365 2.646-.61.614-.645 1.354-.994 2.031-1.557 3.022-8.276 3.805-13.768 4.052-.013.137-.03.276-.047.415a8.63 8.63 0 0 0-2.643-1.395c-2.029-.622-4.597-1.425-4.366-2.735.123-.696 1.054-1.24 1.729-1.823 1.3-1.125 1.651-2.71.254-3.796-1.397-1.087-4.762-1.232-5.994-.082-.634.591-.596 1.333-.923 2.001-1.021 2.084-5.153 2.999-8.663 3.809-3.509.809-7.436 2.316-7.106 4.472.354 2.315 5.597 4.372 3.689 6.348ZM161.528 206.051a7.677 7.677 0 0 0-2.717 1.064c.526.023 1.049.057 1.552.089 5.867.375 13.269-.901 14.18-4.237.459-1.683-.954-3.328-2.326-4.84l-1.654-1.823c-2.871.976-6.793 1.316-10.2 1.099-2.148-.138-4.674-.326-6.15.577-1.138.697-1.136 1.781-.758 2.709.973 2.388 4.087 4.456 8.073 5.362Z" opacity=".1"/><path fill="#EA565C" d="M281.019 190.798c32.269 0 58.428-17.272 58.428-38.577 0-21.306-26.159-38.577-58.428-38.577s-58.428 17.271-58.428 38.577c0 21.305 26.159 38.577 58.428 38.577Z"/><path fill="#fff" d="M261.154 149.493s-26.488 2.728-18.697-8.573c7.79-11.3 17.528-15.197 22.202-12.079 4.675 3.117 6.622 11.69 5.843 11.69-.779 0-12.075-6.625-15.97-1.559-3.895 5.066 6.622 10.521 6.622 10.521ZM284.105 150.598s21.873 15.19 8.603 18.688c-13.269 3.497-23.195.108-24.711-5.304-1.517-5.411 2.588-13.184 3.179-12.677.591.508 4.848 12.895 11.102 11.59 6.254-1.305 1.827-12.297 1.827-12.297ZM289.211 141.077s1.726-26.581 11.566-17.013c9.839 9.568 12.057 19.822 8.206 23.913-3.852 4.092-12.626 4.584-12.497 3.815.13-.768 8.542-10.806 4.199-15.493-4.344-4.686-11.474 4.778-11.474 4.778Z" opacity=".2"/><path fill="#EA565C" d="M210.516 187.68c32.269 0 58.428-17.271 58.428-38.577 0-21.305-26.159-38.577-58.428-38.577s-58.428 17.272-58.428 38.577c0 21.306 26.159 38.577 58.428 38.577Z"/><path fill="#fff" d="M190.65 146.376s-26.487 2.727-18.697-8.573c7.791-11.3 17.529-15.197 22.203-12.08 4.674 3.118 6.622 11.69 5.843 11.69-.779 0-12.075-6.624-15.971-1.558-3.895 5.065 6.622 10.521 6.622 10.521ZM213.601 147.48s21.873 15.191 8.604 18.688c-13.269 3.498-23.195.108-24.712-5.303-1.516-5.411 2.588-13.184 3.179-12.677.591.508 4.849 12.895 11.103 11.59 6.254-1.305 1.826-12.298 1.826-12.298ZM218.708 137.96s1.726-26.581 11.565-17.013c9.84 9.567 12.058 19.822 8.206 23.913-3.852 4.091-12.626 4.583-12.496 3.815.13-.768 8.542-10.807 4.198-15.493-4.344-4.686-11.473 4.778-11.473 4.778Z" opacity=".2"/><path fill="#000" d="M240.922 116.273c12.727 7.076 20.816 17.673 20.816 29.518 0 21.306-26.159 38.577-58.428 38.577-11.057 0-21.396-2.028-30.212-5.551 10.164 5.651 23.285 9.058 37.613 9.058 32.269 0 58.428-17.271 58.428-38.577 0-14.005-11.304-26.266-28.217-33.025Z" opacity=".1"/><path fill="#000" d="M311.426 119.001c12.727 7.076 20.815 17.672 20.815 29.518 0 21.305-26.159 38.577-58.428 38.577-11.057 0-21.396-2.029-30.211-5.552 10.163 5.652 23.284 9.059 37.612 9.059 32.269 0 58.428-17.272 58.428-38.577 0-14.005-11.304-26.267-28.216-33.025Z" opacity=".1"/><path fill="#714B4F" d="M175.008 141.713s50.248-53.774 173.337-31.563c97.302 17.558 17.4 47.778-20.348 59.669a135.544 135.544 0 0 1-33.763 6.081c-42.585 2.194-149.7 4.155-119.226-34.187Z"/><path fill="#000" d="M327.997 157.74a135.597 135.597 0 0 1-33.763 6.081c-34.499 1.777-111.343 3.4-123.083-16.432-14.825 32.055 82.881 30.193 123.083 28.122a135.597 135.597 0 0 0 33.763-6.081c27.669-8.716 77.982-27.28 64.562-43.486-9.036 12.718-43.413 25.134-64.562 31.796Z" opacity=".1"/><path stroke="#000" stroke-miterlimit="10" stroke-width="2" d="m282.321 110.345 13.633 26.887M240.252 120.087l11.686 22.6M306.861 110.345l18.307 26.887M240.252 145.025l122.7-15.586M358.277 115.411l8.57 12.079M216.102 129.439l5.453 11.3" opacity=".1"/><path fill="#F6C964" d="M234.418 92.83s112.049-.506 113.077-1.52c1.028-1.015 24.671-1.552 29.297 5.04 4.626 6.593 6.168 9.635 0 10.649-6.168 1.015-209.193 104.972-209.193 104.972s-11.307 1.014-5.654-10.143c5.654-11.156 72.473-108.997 72.473-108.997Z"/><path fill="#61AB43" d="M281.459 139.199c0 4.196-20.23 14.418-45.184 14.418-24.955 0-45.185-10.222-45.185-14.418 0-4.197 20.23-5.845 45.185-5.845 24.955 0 45.184 1.648 45.184 5.845Z"/><path fill="#61AB43" d="M236.275 146.603c24.954 0 45.184-3.402 45.184-7.599 0-4.196-20.23-7.598-45.184-7.598-24.955 0-45.185 3.402-45.185 7.598 0 4.197 20.23 7.599 45.185 7.599Z"/><path fill="#61AB43" d="M335.992 132.185c0 4.196-20.23 14.418-45.184 14.418-24.955 0-45.185-10.222-45.185-14.418 0-4.197 20.23-5.845 45.185-5.845 24.954 0 45.184 1.648 45.184 5.845Z"/><path fill="#61AB43" d="M290.808 139.589c24.954 0 45.184-3.402 45.184-7.599 0-4.196-20.23-7.598-45.184-7.598-24.955 0-45.185 3.402-45.185 7.598 0 4.197 20.23 7.599 45.185 7.599Z"/><path fill="#61AB43" d="M390.525 125.171c0 4.196-20.23 14.418-45.184 14.418-24.955 0-45.185-10.222-45.185-14.418 0-4.197 20.23-5.845 45.185-5.845 24.954 0 45.184 1.648 45.184 5.845Z"/><path fill="#61AB43" d="M345.341 132.575c24.954 0 45.184-3.402 45.184-7.599 0-4.196-20.23-7.598-45.184-7.598-24.955 0-45.185 3.402-45.185 7.598 0 4.197 20.23 7.599 45.185 7.599Z"/><path fill="#FECA57" d="M178.935 127.33s-18.584-3.027-9.076-18.158c9.508-15.132 12.706-32.095 16.855-35.884 4.639-4.237 100.38-78.52 174.966 3.678a109.646 109.646 0 0 1 19.021 29.713c.902 2.054 1.897 3.898 2.87 4.87 3.025 3.027 5.618 11.673 0 15.997-5.619 4.323-171.142 21.184-204.636-.216Z"/><path fill="#F2F2F2" d="M266.018 64.425a7.265 7.265 0 0 1-3.889 1.297c-2.148 0-3.89-.581-3.89-1.297 0-.717 1.742-1.297 3.89-1.297 1.394.05 2.744.5 3.889 1.297ZM234.902 56.21a7.271 7.271 0 0 1-3.89 1.297c-2.148 0-3.889-.58-3.889-1.297 0-.716 1.741-1.297 3.889-1.297 1.394.05 2.744.5 3.89 1.297ZM319.431 68.18a7.266 7.266 0 0 1-4.099.077c-2.05-.642-3.539-1.716-3.325-2.4.214-.684 2.049-.718 4.099-.076a7.266 7.266 0 0 1 3.325 2.4ZM261.952 46.131a7.27 7.27 0 0 1-4.1.076c-2.05-.641-3.539-1.715-3.325-2.4.214-.683 2.049-.717 4.1-.075a7.277 7.277 0 0 1 3.325 2.4ZM324.617 53.913a7.266 7.266 0 0 1-4.099.077c-2.05-.642-3.539-1.716-3.325-2.4.214-.684 2.049-.718 4.099-.076a7.265 7.265 0 0 1 3.325 2.4ZM311.829 52.752a7.268 7.268 0 0 1-3.89 1.297c-2.148 0-3.889-.581-3.889-1.297 0-.717 1.741-1.297 3.889-1.297 1.394.05 2.745.5 3.89 1.297ZM274.662 44.97a7.269 7.269 0 0 1-3.89 1.297c-2.148 0-3.889-.581-3.889-1.297 0-.717 1.741-1.297 3.889-1.297 1.394.05 2.745.5 3.89 1.297ZM303.185 44.97a7.266 7.266 0 0 1-3.889 1.297c-2.148 0-3.89-.581-3.89-1.297 0-.717 1.742-1.297 3.89-1.297 1.394.05 2.744.5 3.889 1.297ZM292.381 61.83a7.266 7.266 0 0 1-3.889 1.298c-2.149 0-3.89-.581-3.89-1.297 0-.717 1.741-1.297 3.89-1.297 1.394.05 2.744.5 3.889 1.297ZM260.955 58.8a7.27 7.27 0 0 1 2.039-3.557c1.603-1.431 3.289-2.158 3.766-1.623.476.534-.437 2.127-2.039 3.558a7.271 7.271 0 0 1-3.766 1.623ZM241.507 54.045a7.285 7.285 0 0 1 2.039-3.558c1.603-1.43 3.289-2.157 3.766-1.623.477.535-.436 2.128-2.039 3.558a7.271 7.271 0 0 1-3.766 1.623ZM207.797 77.391a7.284 7.284 0 0 1 2.039-3.558c1.603-1.43 3.289-2.157 3.766-1.623.477.535-.436 2.128-2.039 3.559a7.271 7.271 0 0 1-3.766 1.622ZM282.564 51.451a7.269 7.269 0 0 1 2.039-3.558c1.603-1.43 3.289-2.157 3.766-1.623.476.535-.437 2.128-2.04 3.558a7.264 7.264 0 0 1-3.765 1.623ZM274.785 67.015a7.277 7.277 0 0 1 2.039-3.558c1.603-1.43 3.289-2.157 3.766-1.623.476.535-.436 2.128-2.039 3.558a7.271 7.271 0 0 1-3.766 1.623Z"/><path fill="#F0F0F0" d="M418.339 236.437s-5.918 1.776-8.876 5.327c0 0-5.326 2.368-8.58 1.776-3.255-.592-9.172 5.328-4.438 7.104 4.734 1.775 33.728 6.511 34.32 5.031.592-1.48.592-16.574.592-16.574l-13.018-2.664ZM464.82 233.895s-5.527 2.761-7.836 6.766c0 0-4.843 3.243-8.151 3.216-3.308-.027-8.127 6.816-3.16 7.757 4.968.941 34.345.653 34.675-.907.33-1.559-2.247-16.432-2.247-16.432l-13.281-.4Z"/><path fill="#FFB9B9" d="M427.954 33.253c7.353 0 13.314-5.963 13.314-13.318 0-7.356-5.961-13.319-13.314-13.319s-13.313 5.963-13.313 13.319c0 7.355 5.96 13.318 13.313 13.318Z"/><path fill="#FFB9B9" d="M438.753 22.154s1.479 10.063 4.142 11.247a19.66 19.66 0 0 1 5.03 3.552l-7.397 3.552-14.497-.888s1.184-6.512-.887-9.767c-2.071-3.256 13.609-7.696 13.609-7.696ZM466.268 69.806s6.805 17.462 0 34.332c-6.804 16.871-9.763 19.534-9.763 19.534l-2.071-22.198 2.381-2.16s1.443-6.735.27-10.722c-1.172-3.988.604-16.419.604-16.419l8.579-2.367Z"/><path fill="#262529" d="M415.38 107.69s-8.58 19.534-7.692 29.005c.888 9.471 7.692 49.427 7.692 49.427s-.887 51.499 1.775 51.499c2.663 0 15.385 4.735 15.385 1.48 0-3.256 2.663-81.392 2.663-81.392s15.089 34.332 16.568 36.996c1.479 2.664 10.947 44.396 14.201 44.396 3.255 0 13.314-2.96 12.427-5.032-.888-2.072-10.947-48.243-16.569-60.082-5.621-11.839-4.437-56.53-4.437-56.53l-9.468-20.718-32.545 10.951ZM423.96 13.867s-8.284-.592-8.876-2.664c-.591-2.071-1.775-3.847-1.183-3.847.592 0 .888-1.48.888-1.48s.591-.296.887 0c.296.296.592-2.072.592-2.072s.296-.888.592-.296c.295.592.295.296.591-.592.296-.888 1.775-1.48 1.775-1.48s5.622.296 6.509-.887c.888-1.184 10.947-.296 13.018 1.183 2.071 1.48 11.243 6.808 9.764 11.247-1.48 4.44-6.805 14.207-6.805 15.687 0 1.48-2.071 1.184-2.663-.296-.592-1.48-5.325-3.256-5.325-4.144 0-.888-2.663-9.175-4.142-8.583-1.48.592-3.255 5.328-3.847 4.44-.591-.888-1.775-6.216-1.775-6.216Z"/><path fill="#AA2424" d="M464.789 54.415s-12.13-17.758-15.68-18.646c-3.551-.888-11.539-3.256-11.539-3.256s-7.988 1.184-10.355 2.368-11.243 3.256-11.539 6.807c-.296 3.552 2.367 37.589.888 40.844-1.479 3.256-6.509 34.333-4.142 33.741 2.367-.592.592-8.287 10.947-8.583 10.355-.296 15.976-6.511 19.822.888 3.847 7.399 14.793 13.022 14.793 13.022a72.01 72.01 0 0 1 1.184-7.103c.887-4.143-2.367-14.206-2.367-14.206s.296-23.382 1.479-26.046c1.184-2.663 6.509-19.83 6.509-19.83Z"/><path fill="#AA2424" d="m460.351 53.823 4.438.592s-.296 5.92.887 7.695c1.184 1.776 3.255 10.951 2.071 11.247-1.183.296-11.834 2.072-11.834 2.072l-.592-13.615 5.03-7.99Z"/><path fill="#FFB9B9" d="M412.422 64.478s-2.959 19.238-4.438 21.606c-1.48 2.368-8.876 35.516-8.876 35.516s-12.163 16.921-6.246 16.625c5.917-.296 12.163-15.441 12.163-15.441s18.343-33.444 18.343-36.996c0-3.552 4.438-21.31 4.438-21.31h-15.384Z"/><path fill="#AA2424" d="m421.002 38.433-5.326 2.072s-6.805 24.27-5.325 26.341c1.479 2.072 19.231-.888 19.526-1.776.296-.888-3.254-26.637-8.875-26.637Z"/><path fill="#F0F0F0" d="M47.226 199.049c0 28.837 18.084 52.172 40.432 52.172Z"/><path fill="#AA2424" d="M87.658 251.221c0-29.161 20.181-52.758 45.121-52.758ZM61.875 201.663c0 27.392 11.532 49.558 25.783 49.558Z"/><path fill="#F0F0F0" d="M87.658 251.221c0-37.262 23.326-67.413 52.152-67.413Z"/><path fill="#A8A8A8" d="M79.152 251.588s5.734-.176 7.462-1.407c1.728-1.231 8.82-2.701 9.25-.727.428 1.974 8.617 9.819 2.143 9.871-6.474.053-15.042-1.008-16.767-2.059-1.724-1.051-2.088-5.678-2.088-5.678Z"/><path fill="#000" d="M98.122 258.638c-6.473.052-15.041-1.009-16.766-2.06-1.314-.8-1.837-3.672-2.012-4.997l-.192.007s.364 4.627 2.088 5.678c1.725 1.051 10.293 2.112 16.767 2.059 1.869-.015 2.514-.68 2.479-1.665-.26.595-.973.967-2.364.978Z" opacity=".2"/></svg>