<svg xmlns="http://www.w3.org/2000/svg" xml:space="preserve" style="enable-background:new 0 0 512 512" viewBox="0 0 512 512"><path d="M437.02 74.981C388.667 26.628 324.38 0 256 0S123.333 26.628 74.98 74.981C26.629 123.333 0 187.62 0 256s26.629 132.667 74.98 181.019C123.333 485.372 187.62 512 256 512s132.667-26.628 181.02-74.981C485.371 388.667 512 324.38 512 256s-26.629-132.667-74.98-181.019zM256 492C125.869 492 20 386.131 20 256S125.869 20 256 20s236 105.869 236 236-105.869 236-236 236z"/><path d="M451.464 255.997c0-7.427 2.975-15.941 6.124-24.955 4.837-13.843 9.838-28.159 5.249-42.253-4.773-14.656-18.106-23.806-29.87-31.878-7.617-5.227-14.813-10.165-18.883-15.752-4.155-5.703-6.679-14.156-9.351-23.105-4.052-13.577-8.647-28.965-20.939-37.919-12.179-8.873-27.475-8.541-42.266-8.221-9.406.206-18.289.397-25.131-1.832-6.381-2.077-13.188-7.312-20.394-12.854C284.612 48.467 271.7 38.537 256 38.537s-28.612 9.931-40.004 18.693c-7.207 5.542-14.012 10.777-20.393 12.855-6.842 2.228-15.726 2.035-25.13 1.832-14.79-.322-30.088-.651-42.267 8.22-12.292 8.954-16.885 24.342-20.939 37.919-2.672 8.949-5.196 17.402-9.351 23.106-4.07 5.588-11.266 10.525-18.883 15.753-11.764 8.072-25.097 17.222-29.87 31.879-4.589 14.093.412 28.408 5.249 42.252 3.149 9.014 6.124 17.528 6.124 24.955s-2.975 15.941-6.124 24.955c-4.837 13.843-9.838 28.159-5.249 42.253 4.773 14.656 18.106 23.806 29.87 31.878 7.617 5.228 14.813 10.166 18.883 15.753 4.155 5.703 6.679 14.156 9.351 23.105 4.052 13.577 8.647 28.965 20.938 37.919 12.18 8.873 27.478 8.54 42.268 8.221 9.401-.204 18.288-.396 25.13 1.832 6.381 2.078 13.188 7.312 20.394 12.855 11.391 8.761 24.303 18.691 40.003 18.691s28.612-9.931 40.004-18.696c7.206-5.541 14.012-10.776 20.393-12.854 6.84-2.228 15.721-2.036 25.13-1.832 14.79.319 30.088.652 42.267-8.22 12.292-8.954 16.885-24.342 20.939-37.919 2.672-8.949 5.196-17.402 9.351-23.106 4.07-5.588 11.266-10.525 18.883-15.753 11.764-8.072 25.097-17.222 29.87-31.879 4.589-14.093-.412-28.408-5.249-42.252-3.149-9.014-6.124-17.528-6.124-24.955zm-12.756 31.554c3.914 11.205 7.612 21.787 5.112 29.463-2.671 8.201-12.142 14.701-22.169 21.582-8.672 5.952-17.641 12.107-23.732 20.467-6.173 8.474-9.313 18.991-12.349 29.161-3.454 11.569-6.717 22.496-13.552 27.475-6.721 4.895-18.056 4.65-30.058 4.39-10.663-.231-21.685-.469-31.756 2.81-9.653 3.144-18.163 9.689-26.393 16.019-9.725 7.48-18.911 14.545-27.81 14.545-8.899 0-18.086-7.065-27.811-14.545-8.231-6.329-16.741-12.875-26.393-16.018-7.472-2.433-15.468-2.93-23.451-2.93-2.778 0-5.554.06-8.306.118-12.003.259-23.336.505-30.058-4.391-6.835-4.979-10.097-15.907-13.551-27.476-3.037-10.17-6.177-20.686-12.349-29.16-6.09-8.361-15.059-14.515-23.732-20.467-10.027-6.881-19.498-13.381-22.169-21.581-2.5-7.676 1.198-18.26 5.112-29.464 3.561-10.192 7.243-20.731 7.243-31.552 0-10.821-3.682-21.36-7.243-31.552-3.914-11.205-7.612-21.787-5.112-29.463 2.671-8.201 12.142-14.701 22.169-21.582 8.672-5.952 17.641-12.107 23.732-20.467 6.173-8.474 9.313-18.991 12.349-29.161 3.454-11.569 6.717-22.496 13.551-27.475 6.721-4.895 18.053-4.649 30.059-4.39 10.658.231 21.684.47 31.756-2.809 9.653-3.144 18.163-9.689 26.393-16.019 9.726-7.48 18.912-14.545 27.811-14.545 8.898 0 18.085 7.065 27.81 14.545 8.231 6.33 16.741 12.875 26.393 16.018 10.072 3.281 21.098 3.042 31.757 2.811 11.998-.26 23.336-.505 30.058 4.391 6.835 4.979 10.097 15.907 13.551 27.476 3.038 10.17 6.177 20.686 12.349 29.16 6.09 8.361 15.059 14.515 23.732 20.467 10.027 6.881 19.498 13.381 22.169 21.581 2.5 7.676-1.198 18.26-5.112 29.464-3.561 10.192-7.243 20.731-7.243 31.552 0 10.821 3.682 21.36 7.243 31.552z"/><path d="M393.754 301.544c-5.241-1.743-10.903 1.091-12.647 6.33-15.75 47.315-59.805 79.105-109.624 79.105-5.522 0-10 4.477-10 10s4.478 10 10 10c58.446 0 110.126-37.289 128.601-92.788 1.744-5.24-1.09-10.902-6.33-12.647zM396.979 261.484h-.143c-5.522 0-10 4.477-10 10s4.478 10 10 10h.143c5.523 0 10-4.477 10-10s-4.477-10-10-10zM210.89 212.135c-11.697-11.816-27.293-18.347-43.915-18.389-16.656-.028-32.248 6.408-44.002 18.161a62.792 62.792 0 0 0-4.991 5.632c-7.024 8.96-6.258 21.777 1.78 29.814l6.858 6.858c-7.401 4.341-14.625 8.661-18.618 11.276-4.421 2.895-7.364 7.742-7.872 12.965-.484 4.976 1.236 9.782 4.671 13.137l26.212 25.968c3.091 3.089 7.268 4.784 11.669 4.784.587 0 1.178-.03 1.773-.091a17.133 17.133 0 0 0 12.624-7.678c2.594-3.956 6.924-11.195 11.28-18.623l6.857 6.857c8.038 8.04 20.858 8.802 29.818 1.779a62.73 62.73 0 0 0 6.618-6.002c11.18-11.694 17.259-27.099 17.113-43.378-.146-16.276-6.493-31.571-17.875-43.07zm-13.694 72.625a42.579 42.579 0 0 1-4.5 4.082c-1.011.792-2.446.715-3.339-.179l-16.042-16.042a10.001 10.001 0 0 0-15.73 2.07c-6.71 11.616-12.015 20.582-15.304 25.876l-20.397-20.207c6.98-4.342 18.892-11.275 25.994-15.377a10.001 10.001 0 0 0 2.069-15.73l-16.043-16.043c-.893-.893-.971-2.327-.182-3.334a42.985 42.985 0 0 1 3.394-3.828c7.936-7.937 18.479-12.303 29.699-12.303h.11c11.26.028 21.825 4.453 29.75 12.459 15.849 16.011 16.082 42.28.521 58.556zM260.07 92.231c-40.468 0-73.391 32.923-73.391 73.391 0 5.523 4.478 10 10 10H323.46c5.522 0 10-4.477 10.001-10 0-40.468-32.923-73.391-73.391-73.391zm-52.452 63.391c4.696-24.676 26.429-43.391 52.451-43.391 26.022 0 47.756 18.715 52.451 43.391H207.618z"/><path d="M271.483 216.322c-5.522 0-10 4.477-10 10v125.09c0 5.523 4.478 10 10 10 40.001 0 72.545-32.544 72.545-72.546 0-40.001-32.544-72.544-72.545-72.544zm10 124.135v-103.18c24.208 4.683 42.545 26.035 42.545 51.59s-18.337 46.907-42.545 51.59zM378.898 177.088c-20.402 0-37 16.598-37 37s16.598 37 37 37c20.403 0 37-16.598 37-37s-16.598-37-37-37zm0 54c-9.374 0-17-7.626-17-17 0-9.374 7.626-17 17-17 9.374 0 17 7.626 17 17 0 9.374-7.626 17-17 17zM200.178 337.425c-20.402 0-37 16.598-37 37s16.598 37 37 37 37-16.598 37-37-16.598-37-37-37zm0 54c-9.374 0-17-7.626-17-17 0-9.374 7.626-17 17-17 9.374 0 17 7.626 17 17 0 9.374-7.626 17-17 17z"/></svg>