<svg xmlns="http://www.w3.org/2000/svg" xml:space="preserve" style="enable-background:new 0 0 512 512" viewBox="0 0 512 512"><path d="M350.66 127.881c-.12-.64-.32-1.27-.57-1.87a9.799 9.799 0 0 0-.92-1.73 9.57 9.57 0 0 0-1.24-1.52 9.57 9.57 0 0 0-1.52-1.24 9.937 9.937 0 0 0-1.73-.92 10.08 10.08 0 0 0-1.87-.58c-3.25-.65-6.701.42-9.02 2.74-.46.459-.88.969-1.24 1.52-.36.539-.67 1.12-.92 1.73-.25.599-.45 1.23-.57 1.87-.13.639-.2 1.3-.2 1.95 0 .649.07 1.309.2 1.95.12.64.32 1.269.57 1.869.25.61.56 1.19.92 1.73.36.55.78 1.06 1.24 1.52.46.46.97.881 1.52 1.24.54.36 1.12.67 1.73.92.599.25 1.229.45 1.87.57.639.13 1.3.2 1.949.2.651 0 1.311-.07 1.951-.2.641-.12 1.27-.32 1.87-.57a9.87 9.87 0 0 0 1.73-.92c.55-.359 1.06-.78 1.52-1.24.46-.46.88-.97 1.24-1.52.36-.54.67-1.12.92-1.73a10.065 10.065 0 0 0 .769-3.819c0-.65-.069-1.31-.199-1.95zM181.329 425.711c-.13-.641-.32-1.27-.57-1.87a9.87 9.87 0 0 0-.92-1.73 9.57 9.57 0 0 0-1.24-1.52c-.47-.46-.98-.88-1.52-1.24a9.841 9.841 0 0 0-1.73-.92c-.6-.25-1.229-.45-1.87-.58-1.29-.25-2.62-.25-3.91 0-.639.13-1.269.33-1.869.58s-1.18.55-1.73.92c-.54.36-1.05.78-1.52 1.24-.46.46-.881.97-1.24 1.52a9.87 9.87 0 0 0-.92 1.73c-.25.6-.44 1.229-.57 1.87-.13.639-.2 1.3-.2 1.95 0 .649.07 1.309.2 1.949.13.641.32 1.27.57 1.87.25.61.56 1.19.92 1.73.359.55.78 1.06 1.24 1.52.47.46.98.88 1.52 1.24.549.361 1.129.67 1.73.92.599.25 1.229.45 1.869.57.65.13 1.301.2 1.961.2.65 0 1.3-.07 1.949-.2.641-.12 1.27-.32 1.87-.57s1.18-.56 1.73-.92c.541-.36 1.05-.78 1.52-1.24.46-.46.88-.97 1.24-1.52.36-.54.67-1.12.92-1.73.25-.599.44-1.229.57-1.87.13-.639.2-1.3.2-1.949 0-.65-.07-1.31-.2-1.95z"/><path d="m434.177 160.485-.022-.091a35.148 35.148 0 0 0-6.501-13.485l-.001-.001-33.032-42.101a10.004 10.004 0 0 0 6.295-9.291V56.144c0-5.522-4.477-10-10-10H222.852v-9.477C222.852 16.449 206.404 0 186.131 0c-20.218 0-36.667 16.449-36.667 36.667v9.477h-28.38c-5.522 0-10 4.478-10 10v39.372c0 4.214 2.607 7.818 6.295 9.291l-33.033 42.102a35.141 35.141 0 0 0-6.501 13.485l-.022.091a34.955 34.955 0 0 0-.926 7.987v221.2c0 3.139.423 6.264 1.259 9.29l.036.133a34.755 34.755 0 0 0 6.155 12.142l33.032 42.101a10.004 10.004 0 0 0-6.295 9.291V502c0 5.522 4.478 10 10 10h269.832c5.523 0 10-4.478 10-10v-39.372c0-4.213-2.607-7.818-6.295-9.291l33.032-42.101a34.755 34.755 0 0 0 6.191-12.275 34.891 34.891 0 0 0 1.259-9.29V168.472c0-2.688-.311-5.375-.926-7.987zM186.187 20c9.19 0 16.666 7.477 16.666 16.667v9.415h-33.389v-9.415c0-9.19 7.477-16.667 16.723-16.667zm-55.103 46.144h249.832v19.372H131.084V66.144zm-25.919 86.629 10.155-12.943h185.498c5.522 0 10-4.478 10-10s-4.478-10-10-10H131.012l11.231-14.314h227.514l37.078 47.258-301.67-.001zM380.916 492H131.084v-19.372h249.832V492zm-169.349-74.34c-5.522 0-10 4.478-10 10s4.478 10 10 10H381.5l-11.744 14.968H142.243l-36.271-46.229h300.055l-8.835 11.261H211.567zm203.536-31.262H96.896V172.773h318.207v213.625z"/><path d="M310.635 223.497c-10.85-7.206-24.107-9.213-34.134-7.838l6.827-3.358c4.955-2.438 6.997-8.432 4.56-13.388-2.438-4.955-8.43-6.997-13.388-4.56l-8.228 4.048c-8.893 4.374-15.391 11.949-18.402 20.972a57.858 57.858 0 0 1-4.492-1.664c-9.578-4.029-27.446-3.204-41.697 6.261-9.835 6.532-21.559 19.515-21.559 44.266 0 44.755 17.033 92.924 54.432 92.924 12.031 0 17.279-2.414 21.445-4.968 4.166 2.554 9.414 4.968 21.445 4.968 37.398 0 54.432-48.169 54.432-92.924.001-25.316-11.551-38.302-21.241-44.739zm-33.19 117.662c-7.766 0-9.636-1.169-11.285-2.2-1.912-1.195-5.113-3.197-10.16-3.197s-8.248 2.002-10.16 3.197c-1.649 1.031-3.52 2.2-11.285 2.2-22.364 0-34.432-37.572-34.432-72.924 0-12.754 4.247-22.042 12.624-27.606 9.139-6.069 20.068-5.665 22.875-4.486 5.563 2.341 14.237 5.074 20.378 5.074s14.815-2.733 20.377-5.073c3.092-1.301 14.152-1.991 23.192 4.013 8.167 5.424 12.308 14.871 12.308 28.078 0 35.352-12.067 72.924-34.432 72.924z"/></svg>